<svg xmlns="http://www.w3.org/2000/svg" viewBox="0 0 95.7 67.72"><defs><style>.cls-1{opacity:0.7;}.cls-2,.cls-3{fill:#98dab4;}.cls-2{fill-rule:evenodd;}</style></defs><title>Asset 5</title><g id="Layer_2" data-name="Layer 2"><g id="Layer_1-2" data-name="Layer 1"><g class="cls-1"><path class="cls-2" d="M78.42,25c1.8-.63,2-3.88,2.89-5.9,7,1.94,13,4.52,14.39,9.93-.26,1.12-.53,2.24-.79,3.36C87,43.45,79.85,55.65,72.16,67,51.77,70.31,21.28,61.5,2.94,51.39,1.22,38,1.49,23.29,0,9.72c.22-1,.45-1.93.67-2.88C4.4,2.71,10.8,2.89,18,4.29c-.25,2.49-.58,5-.72,7.42A153.68,153.68,0,0,0,32.12,0L71,9.06C73.22,14.52,76.51,19.31,78.42,25ZM68.55,13.05c-10.69-.05-24.34-8.87-35-8.17-5.08.33-10.79,9-14.17,10.87,16.43,6.87,38.45,13.4,56.52,13.68.73-1.56-1-4.52-2.38-7.14-1.57-3-3.63-5.77-4.45-9.13Zm14.64,11c-.16,2.17-1.45,2.51-1.6,4.69,3.69.66,6.69.21,10,.31C89.84,26.75,86.87,25.18,83.19,24.05ZM14.08,7.94a19.59,19.59,0,0,0-9.2.39c2,2,5.16,3.35,8.56,4.52C14.31,10.8,13.47,9.82,14.08,7.94ZM5.75,48c16.54,9.44,45.83,17.44,64.79,15.1,6.35-9.8,12.71-19.59,19-29.46C64,36,26.89,25.59,4.72,13.35,3.43,24.27,6,36.34,5.75,48Z"/><g id="pharmacy"><path class="cls-3" d="M43.79,39.67l-14.64-4.4s.74,2.32,6.39,4L32,51l-.61.07-.34-.1c-.16-.05-2.7-.45-2.82-.05a.77.77,0,0,0,.52,1L35,53.7a.77.77,0,0,0,1-.52c.12-.4-2.21-1.47-2.37-1.52l-.33-.1-.49-.39L36.26,39.5C41.9,41.19,43.79,39.67,43.79,39.67Z"/><path class="cls-3" d="M28.86,48.43c.42,1.25,8.85,4.26,9.67,1.94S31.19,49.06,32.15,47c.61-1.3,6.16,1.3,7.2-.26,2.26-3.37-7.07-3.63-8.72-6.11-1.46-2.22,3.79,0,7.66,1.22,4.05,1.31,11.2-.3,9-5.78-2-5-7.77-3.34-7.77-3.34-3.71-.27-3.33,2-3.33,2,2.43,1.63,4.62-.78,4.62-.78s3.87-.28,5.09,2.73-2.51,5.42-7.76,3.85-4.56-1.65-7.07-2.13c-3.11-.59-2.88,2.93.67,4.46,2.56,1.1,6.63,1.76,6.29,2.6s-6.31-1.17-7.22,1.09c-.52,1.3.27,3.1,6.25,3.39,1.09.05.44.86-.87.8A16.54,16.54,0,0,1,28.86,48.43Z"/></g></g></g></g></svg>