<svg xmlns="http://www.w3.org/2000/svg" viewBox="0 0 115.52 65.8"><defs><style>.cls-1{fill:#cccecf;fill-rule:evenodd}.cls-2{fill:#98dab4}</style></defs><title>Asset 9</title><g id="Layer_2" data-name="Layer 2"><g id="Layer_1-2" data-name="Layer 1"><path class="cls-1" d="M49 .2l63.79 4.63 2.73.2-.2 2.73-3.14 43.3-.2 2.73-2.73-.2-24.14-1.75-.7 9.64 5.89.42-.3 3.9-28.08-2 .29-3.89 6.88.5.7-9.64L45.46 49l-2.73-.2.19-2.8 3.15-43.3.2-2.7L49 .2zm60.67 9.89L51.33 5.85 48.58 43.7l58.34 4.23z"/><path class="cls-2" transform="rotate(-87.15 79.127 25.835)" d="M68.65 21.41H89.6v8.84H68.65z"/><path class="cls-2" transform="rotate(-87.15 79.117 25.835)" d="M74.7 15.36h8.85v20.95H74.7z"/><path class="cls-1" d="M2.66 29.22L22.26 24a3.59 3.59 0 0 1 4.38 2.54L34.44 56a3.57 3.57 0 0 1-2.53 4.37L12.3 65.59a3.6 3.6 0 0 1-4.38-2.54L.12 33.59a3.58 3.58 0 0 1 2.54-4.37zm16.71 29.53l.82 3.08 3.08-.83-.81-3.09-3.09.82zM8.71 29.64L9 30.82l8.14-2.16-.31-1.18-8.12 2.16zm-5.28 4.6l6.73 25.4L31 54.13l-6.76-25.41z"/><path class="cls-2" transform="rotate(-15.7 17.289 44.808)" d="M14.27 37.67h6.02v14.27h-6.02z"/><path class="cls-2" transform="rotate(-15.69 17.272 44.793)" d="M10.15 41.79h14.27v6.02H10.15z"/></g></g></svg>