<svg xmlns="http://www.w3.org/2000/svg" viewBox="0 0 12.04 9.36"><defs><style>.cls-1{fill:#fff;}</style></defs><title>Asset 2</title><g id="Layer_2" data-name="Layer 2"><g id="Layer_1-2" data-name="Layer 1"><path class="cls-1" d="M5.82,5.86h0A.24.24,0,0,0,6,5.94a.27.27,0,0,0,.18-.07h0L11.55.19A1.11,1.11,0,0,0,11.1.07L1,0A.93.93,0,0,0,.57.11Z"/><path class="cls-1" d="M4.09,5,.11.66a.86.86,0,0,0,0,.28L0,8.34a.93.93,0,0,0,.11.44Z"/><path class="cls-1" d="M7.93,5.05l3.93,3.82A1,1,0,0,0,12,8.43L12,1a1.17,1.17,0,0,0,0-.27Z"/><path class="cls-1" d="M7.45,5.57l-.74.78s0,0,0,0h0A1,1,0,0,1,6,6.66a1,1,0,0,1-.68-.3l0,0-.72-.78L.65,9.24a.87.87,0,0,0,.28,0L11,9.36a1.35,1.35,0,0,0,.29,0Z"/></g></g></svg>