<svg xmlns="http://www.w3.org/2000/svg" viewBox="0 0 8.85 9.88"><defs><style>.cls-1{fill:#fff;}</style></defs><title>Asset 1</title><g id="Layer_2" data-name="Layer 2"><g id="Layer_1-2" data-name="Layer 1"><path class="cls-1" d="M8.85,8.27c0-.36-2.46-2.65-2.92-2.24a2.1,2.1,0,0,0-.81,1.36C5,8,1.61,3.86,2.27,3.84a2.63,2.63,0,0,0,1.5-.5C4.27,3,2.57.08,2.23,0A3,3,0,0,0,.53,1,4,4,0,0,0,.05,3.3,14.71,14.71,0,0,0,2.1,6.93,14.61,14.61,0,0,0,5.16,9.68a4,4,0,0,0,2.39,0A3.1,3.1,0,0,0,8.85,8.27Z"/></g></g></svg>