<svg xmlns="http://www.w3.org/2000/svg" viewBox="0 0 69.99 65.43"><defs><style>.cls-1{opacity:0.7;}.cls-2{fill:#98dab4;}</style></defs><title>Asset 7</title><g id="Layer_2" data-name="Layer 2"><g id="Layer_1-2" data-name="Layer 1"><g id="pills" class="cls-1"><path class="cls-2" d="M48.57,19.25a12,12,0,0,0-4-16.51L43,1.77a12,12,0,0,0-16.51,4L15.07,24.43l22.07,13.5Z"/><path class="cls-2" d="M13.2,27.49,1.77,46.18a12,12,0,0,0,4,16.51l1.58,1a12,12,0,0,0,16.51-4L35.27,41Z"/><path class="cls-2" d="M60,64.38a15.63,15.63,0,0,0,9-20.17L39.81,55.41A15.6,15.6,0,0,0,60,64.38Z"/><path class="cls-2" d="M47.75,32.55a15.61,15.61,0,0,0-9,20.17L56.52,45.9l11.4-4.37A15.6,15.6,0,0,0,47.75,32.55Z"/><path class="cls-2" d="M52.7,26.47a7.8,7.8,0,0,0,10.12,4.39L57.09,16.35A7.8,7.8,0,0,0,52.7,26.47Z"/><path class="cls-2" d="M68.56,20.21a7.81,7.81,0,0,0-10.13-4.39l5.73,14.52A7.81,7.81,0,0,0,68.56,20.21Z"/></g></g></g></svg>