<svg xmlns="http://www.w3.org/2000/svg" viewBox="0 0 77.68 65.52"><defs><style>.cls-1{fill:#98dab4}.cls-2{fill:#cccecf;fill-rule:evenodd}</style></defs><title>Asset 6</title><g id="Layer_2" data-name="Layer 2"><g id="Layer_1-2" data-name="Layer 1"><path class="cls-1" transform="rotate(-89.65 43.353 24.739)" d="M29.54 18.91h27.62v11.66H29.54z"/><path class="cls-1" transform="rotate(-89.65 43.353 24.739)" d="M37.52 10.93h11.66v27.62H37.52z"/><path class="cls-2" d="M69.43 0h3.7a4.56 4.56 0 0 1 4.55 4.55V45a4.55 4.55 0 0 1-4.55 4.55H67.3c.43-1.53.77-3.09 1-4.66h1.32V4.51H18.6v21.93h-1.45V18.7A1.2 1.2 0 0 0 16 17.51a1.2 1.2 0 0 0-1.19 1.19v7.77h-2.12V4.55A4.57 4.57 0 0 1 17.24 0h52.19zM20 58.8H4.65v6.72H20V58.8zM.93 36.67a4.42 4.42 0 0 0-.56 4.49c2.38 6.77 4.52 9.49 6.91 16.26l9.83.15c2.58-3.8 3.1-7.32 1.16-11.46 1.29-6.87 1.43-8.36-.35-16.07h-3.46a20.37 20.37 0 0 0-1.33 8.58H9V28.29C6.19 31 3.59 33.83.93 36.67zm67.21 15.26l-14.43 9.16 2.82 4.43L71 56.37l-2.82-4.44zM46.69 23.46l-2.88 1a52.08 52.08 0 0 0 4.75 16.22l-1 1.12-2.14-6.06-2.1 3.86c3 8 7 15.32 11.61 17.8l9.63-4.82a44.18 44.18 0 0 0-1.25-15.46l-2-.35a11.85 11.85 0 0 0-1.14-2.66l-2.61.27a7.82 7.82 0 0 0-.24 1.7l-.6-.08a12.46 12.46 0 0 0-1.32-3.29l-2.61.29a8 8 0 0 0-.23 2.42c-.41-.05-.77-.08-1.08-.1a37.06 37.06 0 0 0-4.79-11.82zm-2.88 26.1a43.26 43.26 0 0 1-1-4.66H22.14c0 .27-.09.53-.14.79a14.94 14.94 0 0 1 1 3.87z"/></g></g></svg>