<svg xmlns="http://www.w3.org/2000/svg" viewBox="0 0 99.01 58.44"><defs><style>.cls-1{opacity:.7}.cls-2,.cls-3{fill:#98dab4}.cls-3{fill-rule:evenodd}</style></defs><title>Asset 10</title><g id="Layer_2" data-name="Layer 2"><g class="cls-1" id="Layer_1-2" data-name="Layer 1"><path class="cls-2" d="M88 35.13a1.42 1.42 0 1 0 1.58 1.24A1.42 1.42 0 0 0 88 35.13z"/><path class="cls-2" d="M88.41 17.09l-5.1.62a1.62 1.62 0 0 0-1.43 1.81l2.49 20.78a1.63 1.63 0 0 0 1.82 1.42l5.11-.61a1.63 1.63 0 0 0 1.42-1.82l-2.49-20.77a1.64 1.64 0 0 0-1.82-1.43zm.06 22.09a2.65 2.65 0 1 1 2.32-3 2.65 2.65 0 0 1-2.32 3zm1.63-9.49a.61.61 0 0 1-.53.68l-4.24.51a.61.61 0 0 1-.68-.53L83.41 20a.62.62 0 0 1 .53-.68l4.24-.5a.6.6 0 0 1 .68.53z"/><path class="cls-2" d="M85.4 22.23a.61.61 0 0 1-.68-.54.62.62 0 0 1 .54-.68l2-.25a.62.62 0 0 1 .69.54.62.62 0 0 1-.54.69l-2 .24zm.27 2.23a.61.61 0 0 1-.68-.54.61.61 0 0 1 .53-.69l2-.24a.61.61 0 0 1 .68.54.61.61 0 0 1-.53.68l-2 .25zM78.21 36.3a1.43 1.43 0 0 0 .34 2.83 1.43 1.43 0 1 0-.34-2.83z"/><path class="cls-2" d="M78.64 18.27l-5.11.61a1.63 1.63 0 0 0-1.42 1.81l2.49 20.78a1.63 1.63 0 0 0 1.82 1.42l5.1-.61A1.63 1.63 0 0 0 83 40.47l-2.54-20.78a1.63 1.63 0 0 0-1.82-1.42zm.06 22.08a2.65 2.65 0 1 1 2.32-3 2.65 2.65 0 0 1-2.32 3zm1.63-9.48a.6.6 0 0 1-.54.67l-4.24.51a.61.61 0 0 1-.67-.53l-1.25-10.35a.61.61 0 0 1 .54-.67l4.24-.5a.62.62 0 0 1 .68.53z"/><path class="cls-2" d="M75.63 23.4a.62.62 0 0 1-.69-.53.62.62 0 0 1 .54-.69l2-.24a.61.61 0 0 1 .68.53.62.62 0 0 1-.53.69l-2.05.24zm.26 2.23a.62.62 0 0 1-.68-.54.61.61 0 0 1 .54-.68l2-.25a.62.62 0 0 1 .68.54.61.61 0 0 1-.54.68l-2 .25zm-8.77 11.62a1.42 1.42 0 1 0 1.34 1.5 1.43 1.43 0 0 0-1.34-1.5z"/><path class="cls-2" d="M70.72 19.57l-5.14-.3a1.63 1.63 0 0 0-1.72 1.54L62.65 41.7a1.63 1.63 0 0 0 1.54 1.72l5.13.3a1.65 1.65 0 0 0 1.73-1.53l1.2-20.89a1.63 1.63 0 0 0-1.53-1.73zm-3.84 21.75a2.65 2.65 0 1 1 2.8-2.5 2.65 2.65 0 0 1-2.8 2.5zm3.28-9a.62.62 0 0 1-.65.58l-4.26-.25a.62.62 0 0 1-.58-.65l.61-10.4a.61.61 0 0 1 .64-.57l4.26.25a.61.61 0 0 1 .58.64z"/><path class="cls-2" d="M66.84 24.1a.61.61 0 0 1-.57-.65.62.62 0 0 1 .65-.58L69 23a.61.61 0 0 1 .57.65.61.61 0 0 1-.64.58l-2.07-.12zm-.12 2.24a.62.62 0 0 1-.58-.65.62.62 0 0 1 .65-.58l2 .12a.62.62 0 0 1 .59.65.62.62 0 0 1-.66.57l-2-.11z"/><path class="cls-3" d="M58.77 3.13L88.52 0a5.28 5.28 0 0 1 5.79 4.7L99 49.42a5.29 5.29 0 0 1-4.7 5.8l-29.75 3.1a5.29 5.29 0 0 1-5.8-4.7L54.07 8.93a5.29 5.29 0 0 1 4.7-5.8zM76.39 50l.49 4.68 4.68-.49-.49-4.68-4.68.49zM67.48 5.13l.19 1.79L80 5.63l-.19-1.79-12.33 1.29zm-8.74 5.49l4 38.55 31.59-3.29-4-38.55z"/><path class="cls-3" d="M55.7 23.29l-.21 29.92a5.28 5.28 0 0 1-5.32 5.23l-44.93-.32A5.29 5.29 0 0 1 0 52.81L.22 22.9a5.28 5.28 0 0 1 5.31-5.24l44.94.34a5.29 5.29 0 0 1 5.23 5.31zM7.2 35.61H2.49v4.71H7.2v-4.71zm45.55-3.87h-1.8l-.09 12.42h1.8l.09-12.42zm-4.49-9.3L9.5 22.16l-.23 31.75 38.73.28z"/><path class="cls-3" d="M9.94 40.3c.85-1.22 2.39-1 3.55-1.16s2.51 0 3.68-.22c-1-.23-2.16-.36-3.28-.51s-2.47 0-2.93-1.16c2.14-1.52 4.46.15 6.66-.33-.68-.57-2.61-1.1-2.35-2.09s1.9-.1 2.74.16c1.14.35 2.19.55 2.85.85.06-2.44-.21-4.86-.37-7.29 5.88-.45 12.79-.77 19.13-1.14a14.9 14.9 0 0 1 2.72-.23c.22.18.1 1.68.12 2 .12 2 .34 4.14.36 6.08.8.23 1.37-.6 2.26.44.65.76.88 4.84.52 5.5-.62 1.11-1.43.84-2.25.77a57.44 57.44 0 0 0 .31 6.15q-10.95.89-21.92 1.3c-.09-2.28-.22-4.56-.41-6.84-1.88.65-3.83 2.06-5.69 2.63a2.13 2.13 0 0 1-1.79-.15c.88-1.26 2.36-1.54 3.49-2.18a20.2 20.2 0 0 0-3 .31c-1 .13-2.29.62-2.89-.4 1.35-1.57 3.37-1 5-1.57.06 0 .13 0 .19-.07H13.2c-1.18 0-2.56.28-3.26-.85zM21.5 29.44c.12 2.22.12 4.44.46 6.65 6.72.77 13.36.16 20-.75-.15-2.38-.15-4.78-.49-7.15-6.67.49-13.33.81-19.97 1.25zm.55 7.09c.24 1.81.1 3.64.45 5.44 6.51-.94 13.12-.32 19.69-.29-.26-2-.12-4-.48-5.94a90.38 90.38 0 0 1-19.66.79zm10.35 5.23a59.38 59.38 0 0 0-10.13.6c0 2.06.27 4.1.3 6.15q10.09-.36 20.15-1.2c-.18-1.73-.27-3.46-.31-5.19-3.22-.12-6.6-.3-10.01-.36z"/><path class="cls-3" d="M40.6 37.39c.06.63-1 1-1.12 1.53.33.71 1.32.61 1.48 1.31-1.21.87-2.68 0-4-.14a30.57 30.57 0 0 0-3.95 0c-2.52 0-5.55-.4-7.78.52-.71.3-1.46 1.15-2.16.13 0-.58.74-.62.89-1.13s-.78-1-.79-1.54c.65-2 1.91-.47 3.17-.06 1.69.54 3.66.37 5.94.34a20.67 20.67 0 0 0 5.81-.6c.91-.33 1.46-1.19 2.51-.36z"/></g></g></svg>