<svg xmlns="http://www.w3.org/2000/svg" viewBox="0 0 77.68 65.52"><defs><style>.cls-1{fill:#98dab4;}.cls-2{fill:#cccecf;fill-rule:evenodd;}</style></defs><title>Asset 6</title><g id="Layer_2" data-name="Layer 2"><g id="Layer_1-2" data-name="Layer 1"><rect class="cls-1" x="29.54" y="18.91" width="27.62" height="11.66" transform="translate(18.35 67.94) rotate(-89.65)"/><rect class="cls-1" x="37.52" y="10.93" width="11.66" height="27.62" transform="translate(18.35 67.94) rotate(-89.65)"/><path class="cls-2" d="M69.43,0h3.7a4.56,4.56,0,0,1,4.55,4.55V45a4.55,4.55,0,0,1-4.55,4.55H67.3c.43-1.53.77-3.09,1-4.66h1.32V4.51H18.6V26.44H17.15V18.7A1.2,1.2,0,0,0,16,17.51h0a1.2,1.2,0,0,0-1.19,1.19v7.77H12.69V4.55A4.57,4.57,0,0,1,17.24,0H69.43ZM20,58.8H4.65v6.72H20V58.8ZM.93,36.67a4.42,4.42,0,0,0-.56,4.49c2.38,6.77,4.52,9.49,6.91,16.26l9.83.15c2.58-3.8,3.1-7.32,1.16-11.46,1.29-6.87,1.43-8.36-.35-16.07l-3.46,0a20.37,20.37,0,0,0-1.33,8.58H9V28.29C6.19,31,3.59,33.83.93,36.67ZM68.14,51.93,53.71,61.09l2.82,4.43L71,56.37l-2.82-4.44ZM46.69,23.46l-2.88,1a52.08,52.08,0,0,0,4.75,16.22l-1,1.12-2.14-6.06L43.32,39.6c3,8,7,15.32,11.61,17.8l9.63-4.82a44.18,44.18,0,0,0-1.25-15.46l-2-.35a11.85,11.85,0,0,0-1.14-2.66l-2.61.27a7.82,7.82,0,0,0-.24,1.7L56.72,36a12.46,12.46,0,0,0-1.32-3.29L52.79,33a8,8,0,0,0-.23,2.42c-.41-.05-.77-.08-1.08-.1a37.06,37.06,0,0,0-4.79-11.82Zm-2.88,26.1a43.26,43.26,0,0,1-1-4.66H22.14c0,.27-.09.53-.14.79a14.94,14.94,0,0,1,1,3.87Z"/></g></g></svg>