<svg xmlns="http://www.w3.org/2000/svg" viewBox="0 0 224.52 25.65"><defs><style>.cls-1{fill:#475ae2}.cls-2{fill:#50af6d}</style></defs><title>Asset 13</title><g id="Layer_2" data-name="Layer 2"><g id="Layer_1-2" data-name="Layer 1"><path class="cls-1" d="M143.63 1.61h9.56v22.64h-9.56z"/><path class="cls-1" d="M137.09 8.15h22.64v9.56h-22.64z"/><path class="cls-2" d="M16.5 7.92a7.29 7.29 0 0 1-2.56 6Q11.39 16 6.66 16H4.07v9.33H0V.39h7.17q4.68 0 7 1.91a6.85 6.85 0 0 1 2.33 5.62zM4.07 12.56h2.17a7.74 7.74 0 0 0 4.6-1.09 4 4 0 0 0 1.46-3.41 3.84 3.84 0 0 0-1.3-3.2A6.44 6.44 0 0 0 6.9 3.8H4.07zm35.3 12.75h-4.08V14.08H23.8v11.23h-4.07V.39h4.07v10.19h11.49V.39h4.08zm20.27 0l-2.48-6.92h-9.53l-2.44 6.92H40.9l9.32-25h4.43l9.32 25zm-3.56-10.43l-2.33-6.79c-.17-.45-.4-1.17-.71-2.14s-.51-1.69-.62-2.15a38.34 38.34 0 0 1-1.35 4.58l-2.25 6.5zm13.51.47v10h-4.07V.39h7q4.81 0 7.14 1.81A6.49 6.49 0 0 1 82 7.65q0 4.65-4.85 6.63l7 11h-4.57l-6-10zm0-3.37h2.83a6.4 6.4 0 0 0 4.12-1.06 3.8 3.8 0 0 0 1.28-3.13 3.39 3.39 0 0 0-1.38-3 7.59 7.59 0 0 0-4.16-.92h-2.69zm27.26 13.33L89.63 4.5h-.14c.19 3.09.29 6 .29 8.69v12.12h-3.7V.39h5.75l6.91 19.82h.11L106 .39h5.76v24.92h-3.92V13c0-1.23 0-2.85.09-4.83s.12-3.2.17-3.62h-.14l-7.48 20.78zm35.15 0l-2.49-6.92H120l-2.44 6.92h-4.29l9.32-25H127l9.32 25zm-3.56-10.43l-2.33-6.79c-.17-.45-.41-1.17-.71-2.14s-.51-1.69-.62-2.15a38.34 38.34 0 0 1-1.35 4.58l-2.25 6.5zM175 25.31L167.8 4.5h-.13c.19 3.09.29 6 .29 8.69v12.12h-3.7V.39H170l6.92 19.82h.1L184.15.39h5.76v24.92H186V13c0-1.23 0-2.85.09-4.83s.12-3.2.16-3.62h-.13l-7.48 20.78zm41.84-12.5q0 6.09-3 9.46t-8.62 3.38q-5.64 0-8.66-3.35c-2-2.24-3-5.41-3-9.52s1-7.27 3-9.47S201.46 0 205.22 0s6.57 1.12 8.59 3.36 3.03 5.39 3.03 9.45zm-19 0c0 3.07.62 5.39 1.86 7a7.57 7.57 0 0 0 11 0c1.23-1.57 1.84-3.9 1.84-7s-.61-5.37-1.83-6.95a6.47 6.47 0 0 0-5.46-2.37 6.61 6.61 0 0 0-5.53 2.37c-1.27 1.58-1.9 3.9-1.9 6.95zm22.61 12.5V.39h4.07v24.92z"/></g></g></svg>