<svg xmlns="http://www.w3.org/2000/svg" viewBox="0 0 1024 134.45"><defs><style>.cls-1{fill:#53b17b;fill-rule:evenodd}</style></defs><title>Asset 14</title><g id="Layer_2" data-name="Layer 2"><path class="cls-1" d="M1024 5.2v129.25H0V5.34l243.62-.06c19.71 0 43.29-5 57.85-5.27 16.13-.33 30.35 6.32 30.35 6.32l.09-.13c1.08.69 8.55 5.29 15.78 5.29 13.6 0 24.76-9.64 41.3-9.64 7.89 0 16.74 4.7 16.74 4.7v-.06a181.19 181.19 0 0 0 29.5 6.59C499 21.1 545.9.84 585.47 0c16.13-.33 30.35 6.32 30.35 6.32l.08-.13c1.09.69 8.55 5.29 15.79 5.29 13.6 0 24.76-9.64 41.3-9.64 7.89 0 16.74 4.7 16.74 4.7v-.06a121.71 121.71 0 0 0 29.5 3.89c11.32 0 36.7-5.13 58.14-5.13z" id="Layer_1-2" data-name="Layer 1"/></g></svg>