<svg xmlns="http://www.w3.org/2000/svg" viewBox="0 0 1024 127.84"><defs><style>.cls-1{fill:#53b17b;fill-rule:evenodd}</style></defs><title>Asset 15</title><g id="Layer_2" data-name="Layer 2"><path class="cls-1" d="M777.39 122.85c-21.44 0-46.82-4.89-58.14-4.89a126.92 126.92 0 0 0-29.5 3.71.32.32 0 0 0 0-.06s-8.85 4.46-16.74 4.46c-16.54 0-27.7-9.16-41.3-9.16-7.24 0-14.7 4.37-15.79 5l-.08-.12s-14.22 6.32-30.35 6c-39.57-.78-86.47-20-150.22-12.42a187.31 187.31 0 0 0-29.5 6.27v-.06s-8.85 4.46-16.74 4.46c-16.54 0-27.7-9.16-41.3-9.16-7.23 0-14.7 4.37-15.78 5l-.09-.12s-14.22 6.32-30.35 6c-14.56-.29-38.14-5-57.85-5H0V0h1024v122.9z" id="Layer_1-2" data-name="Layer 1"/></g></svg>