<svg xmlns="http://www.w3.org/2000/svg" viewBox="0 0 73.83 65.64"><defs><style>.cls-1{fill:#cccecf;}.cls-2{fill:#98dab4;}</style></defs><title>Asset 8</title><g id="Layer_2" data-name="Layer 2"><g id="Layer_1-2" data-name="Layer 1"><path class="cls-1" d="M73.83,41.18c0-7.87-3.43-13.31-9.45-16.52q.06,1,.06,2c0,9.23-3.6,16.92-10.41,22.24a33.87,33.87,0,0,1-18.7,6.81c4.33,3.49,9.91,4.69,15.3,4.42,12.55-.63,14.3,5.42,19.27,5.47a.66.66,0,0,0,.54-1C63.22,51.78,73.83,54.8,73.83,41.18Z"/><path class="cls-1" d="M30.75,0C12.89,0,0,9.49,0,26.42,0,44.56,14.15,40.55,4.52,57.67A.88.88,0,0,0,5.23,59c6.64-.07,9-8.14,25.7-7.3,13.57.68,29.45-7,29.45-25.31C60.38,7.43,45,0,30.75,0Zm.34,47.24c-12.12,0-16,2.42-19.49,4.51,4.85-10.4-6.86-12-6.86-25.27,0-12.29,8.6-21.81,26-21.81,19.23,0,24.91,12,24.91,21.81C55.64,37.5,48.3,47.24,31.09,47.24Z"/><path class="cls-2" d="M21.09,26.29a5.47,5.47,0,1,1-5.47-5.47A5.47,5.47,0,0,1,21.09,26.29Z"/><path class="cls-2" d="M35.67,26.29a5.47,5.47,0,1,1-5.47-5.47A5.47,5.47,0,0,1,35.67,26.29Z"/><path class="cls-2" d="M50.24,26.29a5.47,5.47,0,1,1-5.46-5.47A5.46,5.46,0,0,1,50.24,26.29Z"/></g></g></svg>