<svg xmlns="http://www.w3.org/2000/svg" viewBox="0 0 115.52 65.8"><defs><style>.cls-1{fill:#cccecf;fill-rule:evenodd;}.cls-2{fill:#98dab4;}</style></defs><title>Asset 9</title><g id="Layer_2" data-name="Layer 2"><g id="Layer_1-2" data-name="Layer 1"><path class="cls-1" d="M49,.2l63.79,4.63,2.73.2-.2,2.73-3.14,43.3-.2,2.73-2.73-.2L85.11,51.84l-.7,9.64,5.89.42L90,65.8l-28.08-2,.29-3.89,6.88.5.7-9.64L45.46,49l-2.73-.2L42.92,46l3.15-43.3L46.27,0,49,.2Zm60.67,9.89L51.33,5.85,48.58,43.7l58.34,4.23Z"/><rect class="cls-2" x="68.65" y="21.41" width="20.95" height="8.84" transform="translate(49.39 103.58) rotate(-87.15)"/><rect class="cls-2" x="74.7" y="15.36" width="8.85" height="20.95" transform="translate(49.38 103.57) rotate(-87.15)"/><path class="cls-1" d="M2.66,29.22,22.26,24a3.59,3.59,0,0,1,4.38,2.54L34.44,56a3.57,3.57,0,0,1-2.53,4.37L12.3,65.59a3.6,3.6,0,0,1-4.38-2.54L.12,33.59a3.58,3.58,0,0,1,2.54-4.37ZM19.37,58.75l.82,3.08L23.27,61l-.81-3.09-3.09.82ZM8.71,29.64,9,30.82l8.14-2.16-.31-1.18L8.71,29.64Zm-5.28,4.6,6.73,25.4L31,54.13,24.24,28.72Z"/><rect class="cls-2" x="14.27" y="37.67" width="6.02" height="14.27" transform="translate(-11.48 6.35) rotate(-15.7)"/><rect class="cls-2" x="10.15" y="41.79" width="14.27" height="6.02" transform="translate(-11.47 6.34) rotate(-15.69)"/></g></g></svg>