<svg xmlns="http://www.w3.org/2000/svg" viewBox="0 0 107.61 109.74"><defs><style>.cls-1{fill:none;stroke:#fff;stroke-miterlimit:10;stroke-width:1.47px;}.cls-2{fill:#fff;}</style></defs><title>Asset 12</title><g id="Layer_2" data-name="Layer 2"><g id="Layer_1-2" data-name="Layer 1"><path class="cls-1" d="M98.89,54.7c0,27-13,47.23-41.64,47.23S15.6,81.67,15.6,54.7s13-47.24,41.65-47.24S98.89,27.72,98.89,54.7Z"/><path class="cls-1" d="M94,57.37c0,25.45-13.37,44.56-42.89,44.56S8.21,82.82,8.21,57.37,21.59,12.8,51.11,12.8,94,31.92,94,57.37Z"/><path class="cls-1" d="M102.28,52.3c0,28.34-13.52,49.63-43.34,49.63S15.6,80.64,15.6,52.3,29.12,2.66,58.94,2.66,102.28,24,102.28,52.3Z"/><path class="cls-1" d="M58.93,15.56c28.43,5.59,47.42,21.78,42.22,48.25S72.24,98.08,43.81,92.49-3.61,70.71,1.59,44.24,30.5,10,58.93,15.56Z"/><path class="cls-1" d="M106.87,58.23c0,29-14.23,50.77-45.63,50.77S15.6,87.23,15.6,58.23,29.83,7.46,61.24,7.46,106.87,29.24,106.87,58.23Z"/><path class="cls-1" d="M71.11,87.77c-24.69,15.84-49.63,17.79-63.72-4.16S5.45,39.79,30.14,23.94,79.77,6.15,93.86,28.11,95.8,71.92,71.11,87.77Z"/><path class="cls-1" d="M80.42,29.71c17.52,24.37,21.25,49.46.42,64.45s-43.44,3.47-61-20.9S-1.38,23.8,19.45,8.81,62.89,5.34,80.42,29.71Z"/><path class="cls-1" d="M98.49,70.57c-12.77,26.67-34.37,41-60.9,28.26S8.64,60.35,21.4,33.68,55.77-7.27,82.29,5.42,111.25,43.9,98.49,70.57Z"/><rect class="cls-2" x="49.37" y="38.77" width="12.88" height="30.5"/><rect class="cls-2" x="40.55" y="47.59" width="30.5" height="12.88"/></g></g></svg>